<svg width="19" height="21" viewBox="0 0 19 21" fill="none" xmlns="http://www.w3.org/2000/svg">
<path d="M18.5 14.4979V6.49795C18.4996 6.14722 18.4071 5.80276 18.2315 5.49911C18.056 5.19546 17.8037 4.94331 17.5 4.76795L10.5 0.767949C10.196 0.592412 9.85107 0.5 9.5 0.5C9.14893 0.5 8.80404 0.592412 8.5 0.767949L1.5 4.76795C1.19626 4.94331 0.94398 5.19546 0.768461 5.49911C0.592943 5.80276 0.50036 6.14722 0.5 6.49795V14.4979C0.50036 14.8487 0.592943 15.1931 0.768461 15.4968C0.94398 15.8004 1.19626 16.0526 1.5 16.2279L8.5 20.2279C8.80404 20.4035 9.14893 20.4959 9.5 20.4959C9.85107 20.4959 10.196 20.4035 10.5 20.2279L17.5 16.2279C17.8037 16.0526 18.056 15.8004 18.2315 15.4968C18.4071 15.1931 18.4996 14.8487 18.5 14.4979Z" stroke="#0B24FB" stroke-linecap="round" stroke-linejoin="round"/>
</svg>
