<svg width="15" height="17" viewBox="0 0 15 17" fill="none" xmlns="http://www.w3.org/2000/svg">
<path d="M7.49949 7.31165C7.49949 7.52593 7.58461 7.73142 7.73613 7.88294C7.88764 8.03445 8.09314 8.11957 8.30741 8.11957C8.52168 8.11957 8.72718 8.03445 8.8787 7.88294C9.03021 7.73142 9.11533 7.52593 9.11533 7.31165C9.11533 7.09738 9.03021 6.89188 8.8787 6.74037C8.72718 6.58886 8.52168 6.50374 8.30741 6.50374C8.09314 6.50374 7.88764 6.58886 7.73613 6.74037C7.58461 6.89188 7.49949 7.09738 7.49949 7.31165ZM14.9121 14.4395L11.222 4.8879V1.37346H12.6702V0H2.32882V1.37346H3.77701V4.8879L0.0868512 14.4395C0.030297 14.589 0 14.7465 0 14.9061C0 15.6191 0.579681 16.1987 1.29267 16.1987H13.7063C13.8659 16.1987 14.0234 16.1684 14.1729 16.1119C14.8394 15.8554 15.1707 15.106 14.9121 14.4395ZM5.15047 5.14441V1.41386H9.84851V5.14441L11.6845 9.89699C11.2664 9.78994 10.8342 9.73541 10.3939 9.73541C9.15774 9.73541 7.98626 10.1697 7.05514 10.9473C6.36792 11.5214 5.50058 11.8353 4.60513 11.834C3.94466 11.834 3.31044 11.6663 2.75096 11.3553L5.15047 5.14441ZM1.40982 14.8253L2.25207 12.6479C2.97314 13.0135 3.77499 13.2095 4.60715 13.2095C5.84326 13.2095 7.01474 12.7752 7.94587 11.9976C8.63058 11.428 9.48697 11.1109 10.3959 11.1109C11.1028 11.1109 11.7774 11.3028 12.3672 11.6582L13.5892 14.8253H1.40982Z" fill="#787878" fill-opacity="0.85"/>
</svg>
