<svg width="17" height="16" viewBox="0 0 17 16" fill="none" xmlns="http://www.w3.org/2000/svg">
<path d="M16.213 5.63397L11.1904 4.90401L8.94507 0.35213C8.88375 0.227502 8.78286 0.126613 8.65823 0.0652885C8.34567 -0.0890125 7.96586 0.0395717 7.80958 0.35213L5.5643 4.90401L0.541605 5.63397C0.40313 5.65375 0.276524 5.71903 0.179591 5.81795C0.062405 5.93839 -0.00216992 6.10044 5.56788e-05 6.26847C0.00228128 6.4365 0.0711253 6.59678 0.191461 6.71408L3.82545 10.2571L2.9669 15.26C2.94677 15.3764 2.95965 15.4961 3.00407 15.6055C3.0485 15.7149 3.12271 15.8097 3.21827 15.8791C3.31383 15.9485 3.42693 15.9898 3.54474 15.9982C3.66254 16.0066 3.78035 15.9818 3.88479 15.9266L8.37733 13.5646L12.8699 15.9266C12.9925 15.9919 13.1349 16.0137 13.2714 15.9899C13.6156 15.9306 13.8471 15.6042 13.7878 15.26L12.9292 10.2571L16.5632 6.71408C16.6621 6.61715 16.7274 6.49054 16.7472 6.35206C16.8006 6.00588 16.5592 5.68541 16.213 5.63397ZM11.4 9.75856L12.1142 13.9187L8.37733 11.9564L4.64047 13.9207L5.35461 9.76053L2.33189 6.81299L6.50989 6.20568L8.37733 2.42135L10.2448 6.20568L14.4228 6.81299L11.4 9.75856Z" fill="#6D6D6D"/>
</svg>
