<svg width="140" height="20" viewBox="0 0 140 20" fill="none" xmlns="http://www.w3.org/2000/svg">
<path d="M28.0529 4.69107H28.0496V2.67271L28.0529 2.66936V4.69107Z" fill="#03013F"/>
<path d="M11.5646 9.88424C11.188 12.1536 9.56797 13.3971 7.48434 13.3971C4.68943 13.3971 2.7765 11.2298 2.7765 7.78219C2.7765 4.33458 4.66934 2.29279 7.46426 2.29279C9.58805 2.29279 11.2081 3.55301 11.5445 5.82576H14.2356C13.7938 2.35471 11.0625 0.0652259 7.44585 0.0652259C3.09449 0.0652259 0 3.2618 0 7.80395C0 12.3461 3.13466 15.628 7.44585 15.628C11.0642 15.628 13.7536 13.3553 14.2808 9.88758H11.5662L11.5646 9.88424Z" fill="#03013F"/>
<path d="M24.9818 13.2681V8.4096C24.9818 5.84565 23.4253 4.47999 20.5016 4.47999C17.5778 4.47999 15.9193 5.84565 15.6883 7.82217H18.2322C18.3979 6.95859 19.156 6.4766 20.4162 6.4766C21.6764 6.4766 22.3325 7.06403 22.3325 8.17865V8.70583L19.4723 9.14766C16.8632 9.54765 15.372 10.6824 15.372 12.6405C15.372 14.468 16.7376 15.6262 18.905 15.6262C20.5451 15.6262 21.7852 14.9534 22.4379 13.7099C22.4379 14.4061 22.4998 14.9299 22.6254 15.4153H25.278C25.0672 14.6136 24.9818 13.9643 24.9818 13.2681ZM22.3325 11.6514C22.3325 12.7208 21.1978 13.6045 19.6832 13.6045C18.6305 13.6045 18.0213 13.1626 18.0213 12.3442C18.0213 11.4405 18.6288 10.9786 19.9141 10.7677L22.3325 10.4079V11.6514Z" fill="#03013F"/>
<path d="M30.7207 1.26332V4.69086H30.724V1.26332H30.7207ZM30.724 11.9426V6.77281H30.7207V11.9426C30.7207 12.207 30.7542 12.4313 30.8261 12.6254C30.7575 12.4313 30.724 12.2036 30.724 11.9426ZM30.9583 12.8898C31.0085 12.9718 31.0738 13.0421 31.1458 13.104C31.0738 13.0388 31.0136 12.9685 30.9583 12.8898Z" fill="#03013F"/>
<path d="M44.5177 13.2681V8.4096C44.5177 5.84565 42.9612 4.47999 40.0375 4.47999C37.1137 4.47999 35.4552 5.84565 35.2242 7.82217H37.7681C37.9338 6.95859 38.6919 6.4766 39.9521 6.4766C41.2123 6.4766 41.8684 7.06403 41.8684 8.17865V8.70583L39.0082 9.14766C36.3991 9.54765 34.9079 10.6824 34.9079 12.6405C34.9079 14.468 36.2735 15.6262 38.4409 15.6262C40.081 15.6262 41.3211 14.9534 41.9738 13.7099C41.9738 14.4061 42.0357 14.9299 42.1613 15.4153H44.8139C44.6031 14.6136 44.5177 13.9643 44.5177 13.2681ZM41.8684 11.6514C41.8684 12.7208 40.7337 13.6045 39.2191 13.6045C38.1664 13.6045 37.5572 13.1626 37.5572 12.3442C37.5572 11.4405 38.1647 10.9786 39.45 10.7677L41.8684 10.4079V11.6514Z" fill="#03013F"/>
<path d="M47.2089 0.274636V15.4157H49.8582V0.274636H47.2089Z" fill="#03013F"/>
<path d="M52.6783 4.6911V15.4155H55.3276V4.6911H52.6783ZM52.5527 0V2.92545H55.4531V0H52.5527Z" fill="#03013F"/>
<path d="M63.9047 9.08259L62.057 8.66419C60.919 8.38972 60.5006 8.03157 60.5006 7.46422C60.5006 6.74792 61.1282 6.34961 62.3282 6.34961C63.6118 6.34961 64.39 6.81152 64.5156 7.6751H66.9339C66.7431 5.67849 65.0628 4.47852 62.3918 4.47852C59.7207 4.47852 58.0806 5.67849 58.0806 7.6751C58.0806 9.31523 59.1751 10.3863 61.5483 10.8918L63.2737 11.2884C64.3683 11.5227 64.6829 11.8993 64.6829 12.4867C64.6829 13.3084 63.9867 13.7503 62.621 13.7503C61.0863 13.7503 60.1826 13.1829 60.032 12.0884H57.6136C57.7827 14.3176 59.6554 15.6213 62.621 15.6213C65.5867 15.6213 67.0979 14.4431 67.0979 12.4013C67.0979 10.7846 66.0285 9.54451 63.9013 9.07925L63.9047 9.08259Z" fill="#03013F"/>
<path d="M30.7207 6.77306V11.9428C30.7207 12.2072 30.7541 12.4315 30.8261 12.6256C30.8596 12.7244 30.9048 12.8131 30.9583 12.8901C31.0085 12.9721 31.0738 13.0424 31.1458 13.1043C31.2177 13.1696 31.2981 13.2231 31.3901 13.2666C31.4821 13.3135 31.5809 13.3553 31.6897 13.3854C31.9072 13.4474 32.1683 13.4775 32.4679 13.4775C32.9298 13.4775 33.3097 13.3955 33.6461 13.2901V15.3486C33.2896 15.5394 32.657 15.6231 31.9005 15.6231C31.2445 15.6231 30.6771 15.5477 30.1951 15.3921C30.1332 15.3754 30.073 15.3553 30.0144 15.3302C29.6094 15.1812 29.2696 14.9704 28.9918 14.6976C28.9517 14.6574 28.9098 14.6155 28.8764 14.5754C28.8044 14.4934 28.7374 14.4097 28.6688 14.3176C28.6354 14.2708 28.6036 14.2223 28.5768 14.172C28.3726 13.8323 28.227 13.4323 28.1416 12.9687C28.1182 12.8365 28.1015 12.6976 28.0831 12.5537C28.063 12.3394 28.0529 12.1152 28.0529 11.8775V6.76469H25.9911V4.68608H28.0529V2.66437L28.7224 1.99493L30.6353 0.0853539L30.7207 0V4.68441H33.6461V6.76302H30.724V6.76636H30.7207V6.77306Z" fill="#03013F"/>
<path d="M28.0529 11.8826C28.0529 12.1203 28.063 12.3445 28.0831 12.5587C28.0596 12.3445 28.0496 12.1203 28.0496 11.8826V6.77311H25.9911V6.76977H28.0529V11.8826Z" fill="#03013F"/>
<path d="M28.1416 12.9721C28.2269 13.434 28.3725 13.8357 28.5767 14.1754C28.3692 13.8357 28.2236 13.4357 28.1416 12.9721Z" fill="#03013F"/>
<path d="M33.646 6.76977H30.7239V6.77311H33.646V6.76977Z" fill="#03013F"/>
<path d="M72.527 6.77138V11.9411C72.527 12.9938 73.0743 13.4758 74.2726 13.4758C74.7345 13.4758 75.1144 13.3938 75.4508 13.2884V15.3469C75.0944 15.5377 74.4617 15.6214 73.7053 15.6214C71.076 15.6214 69.856 14.4013 69.856 11.8775V6.76804H67.7975V4.68608H69.856V2.66772L72.4417 0.0853539L72.527 0V4.68441H75.4525V6.76636H72.527V6.77138Z" fill="#03013F"/>
<path d="M92.5551 5.01585C92.5551 5.01585 92.5585 5.02254 92.5585 5.02589H92.5618V5.00916L92.5551 5.01585Z" fill="#03013F"/>
<path d="M102.25 4.47999C100.739 4.47999 99.4554 5.2783 98.8462 6.76948V4.69087H97.2663V15.4153H98.9517V9.82045C98.9517 7.44561 100.086 6.12179 102.21 6.12179C102.567 6.12179 102.818 6.14188 102.968 6.18372V4.56367C102.819 4.50175 102.612 4.48167 102.252 4.48167L102.25 4.47999Z" fill="#03013F"/>
<path d="M109.612 4.47999C106.456 4.47999 104.314 6.79291 104.314 10.0096C104.314 13.2262 106.438 15.6245 109.612 15.6245C112.787 15.6245 114.911 13.2061 114.911 10.0096C114.911 6.81299 112.787 4.47999 109.612 4.47999ZM109.612 14.1952C107.469 14.1952 106.039 12.4698 106.039 9.98948C106.039 7.50921 107.47 5.90925 109.612 5.90925C111.755 5.90925 113.186 7.52594 113.186 9.98948C113.186 12.453 111.78 14.1952 109.612 14.1952Z" fill="#03013F"/>
<path d="M124.774 4.69108V10.4934C124.774 12.6608 123.303 14.1519 121.306 14.1519C119.811 14.1519 118.993 13.3335 118.993 11.7135V4.69108H117.311V12.1537C117.311 14.2356 118.802 15.6247 120.929 15.6247C122.611 15.6247 124.103 14.7829 124.881 13.372V15.4138H126.461V4.6894H124.775L124.774 4.69108Z" fill="#03013F"/>
<path d="M135.267 4.47999C133.545 4.47999 132.074 5.25822 131.398 6.58203V4.68919H129.821V19.7248H131.503V13.6279C132.176 14.8881 133.44 15.6044 135.121 15.6044C138.067 15.6044 140 13.3718 140 10.0096C140 6.6473 138.107 4.47999 135.269 4.47999H135.267ZM134.869 14.13C132.745 14.13 131.421 12.5735 131.421 10.0698C131.421 7.56611 132.722 5.94941 134.869 5.94941C137.016 5.94941 138.276 7.4841 138.276 10.0096C138.276 12.535 136.993 14.13 134.869 14.13Z" fill="#03013F"/>
<path d="M94.5333 7.63148V8.55866C94.5333 13.3318 91.5711 15.6246 87.9092 15.6246C83.4725 15.6246 80.5521 12.3627 80.5521 7.88587C80.5521 3.40899 83.5796 0.061793 87.8891 0.061793C91.4874 0.061793 93.8605 2.33119 94.2823 5.02402H92.5635V5.00728L92.5568 5.01397C92.2572 3.25167 90.7025 1.61657 87.9327 1.61657C84.4817 1.61657 82.3177 4.16044 82.3177 7.90428C82.3177 11.6481 84.3763 14.0665 87.9745 14.0665C90.5384 14.0665 92.6656 12.6975 92.8731 9.14442H89.9544V7.62981H94.5333V7.63148Z" fill="#03013F"/>
<path d="M92.5635 5.00916V5.02589H92.5602C92.5602 5.02589 92.5602 5.0192 92.5568 5.01585L92.5635 5.00916Z" fill="#03013F"/>
</svg>
