<svg width="15" height="15" viewBox="0 0 15 15" fill="none" xmlns="http://www.w3.org/2000/svg">
<path d="M7.5 0C3.35826 0 0 3.35826 0 7.5C0 11.6417 3.35826 15 7.5 15C11.6417 15 15 11.6417 15 7.5C15 3.35826 11.6417 0 7.5 0ZM7.5 13.7277C4.06138 13.7277 1.27232 10.9386 1.27232 7.5C1.27232 4.06138 4.06138 1.27232 7.5 1.27232C10.9386 1.27232 13.7277 4.06138 13.7277 7.5C13.7277 10.9386 10.9386 13.7277 7.5 13.7277Z" fill="#0B24FB"/>
<path d="M9.36804 4.22995C8.86581 3.78966 8.20286 3.54858 7.49974 3.54858C6.79661 3.54858 6.13367 3.79133 5.63143 4.22995C5.10911 4.68698 4.82117 5.30137 4.82117 5.9593V6.08653C4.82117 6.16019 4.88143 6.22046 4.9551 6.22046H5.75867C5.83233 6.22046 5.8926 6.16019 5.8926 6.08653V5.9593C5.8926 5.22102 6.61414 4.62001 7.49974 4.62001C8.38534 4.62001 9.10688 5.22102 9.10688 5.9593C9.10688 6.47995 8.73858 6.95707 8.16771 7.17637C7.8128 7.31198 7.51146 7.5497 7.2955 7.86108C7.07619 8.17916 6.96235 8.56086 6.96235 8.94758V9.30751C6.96235 9.38117 7.02262 9.44144 7.09628 9.44144H7.89985C7.97351 9.44144 8.03378 9.38117 8.03378 9.30751V8.92749C8.03465 8.76497 8.08447 8.60648 8.17674 8.4727C8.26902 8.33891 8.39947 8.23604 8.55108 8.17749C9.5388 7.79747 10.1766 6.92693 10.1766 5.9593C10.1783 5.30137 9.89036 4.68698 9.36804 4.22995ZM6.8301 11.1825C6.8301 11.3601 6.90065 11.5304 7.02623 11.656C7.15181 11.7816 7.32214 11.8522 7.49974 11.8522C7.67734 11.8522 7.84767 11.7816 7.97325 11.656C8.09883 11.5304 8.16938 11.3601 8.16938 11.1825C8.16938 11.0049 8.09883 10.8346 7.97325 10.709C7.84767 10.5834 7.67734 10.5129 7.49974 10.5129C7.32214 10.5129 7.15181 10.5834 7.02623 10.709C6.90065 10.8346 6.8301 11.0049 6.8301 11.1825Z" fill="#0B24FB"/>
</svg>
