<svg width="44" height="22" viewBox="0 0 44 22" fill="none" xmlns="http://www.w3.org/2000/svg">
<rect width="44" height="22" rx="11" fill="#E0F8F3"/>
<path d="M11.6666 8.9165H14.1666V11.4165" stroke="#24BA9B" stroke-width="0.8" stroke-linecap="round" stroke-linejoin="round"/>
<path d="M14.1667 8.9165L10.625 12.4582L8.54171 10.3748L5.83337 13.0832" stroke="#24BA9B" stroke-width="0.8" stroke-linecap="round" stroke-linejoin="round"/>
<path d="M17.91 6.92H19.17L23.07 12.74H23.09V6.92H24.05V14H22.83L18.89 8.18H18.87V14H17.91V6.92ZM26.319 11.96C26.319 12.1667 26.3623 12.3567 26.449 12.53C26.5423 12.6967 26.6623 12.84 26.809 12.96C26.9557 13.08 27.1257 13.1733 27.319 13.24C27.5123 13.3067 27.7123 13.34 27.919 13.34C28.199 13.34 28.4423 13.2767 28.649 13.15C28.8557 13.0167 29.0457 12.8433 29.219 12.63L29.899 13.15C29.399 13.7967 28.699 14.12 27.799 14.12C27.4257 14.12 27.0857 14.0567 26.779 13.93C26.479 13.8033 26.2223 13.63 26.009 13.41C25.8023 13.1833 25.6423 12.92 25.529 12.62C25.4157 12.3133 25.359 11.9833 25.359 11.63C25.359 11.2767 25.419 10.95 25.539 10.65C25.6657 10.3433 25.8357 10.08 26.049 9.86C26.269 9.63333 26.529 9.45667 26.829 9.33C27.129 9.20333 27.4557 9.14 27.809 9.14C28.229 9.14 28.5823 9.21333 28.869 9.36C29.1623 9.50667 29.4023 9.7 29.589 9.94C29.7757 10.1733 29.909 10.44 29.989 10.74C30.0757 11.0333 30.119 11.3333 30.119 11.64V11.96H26.319ZM29.159 11.24C29.1523 11.04 29.119 10.8567 29.059 10.69C29.0057 10.5233 28.9223 10.38 28.809 10.26C28.6957 10.1333 28.5523 10.0367 28.379 9.97C28.2123 9.89667 28.0157 9.86 27.789 9.86C27.569 9.86 27.3657 9.90333 27.179 9.99C26.999 10.07 26.8457 10.1767 26.719 10.31C26.5923 10.4433 26.4923 10.5933 26.419 10.76C26.3523 10.92 26.319 11.08 26.319 11.24H29.159ZM30.6256 9.26H31.6356L32.7056 12.8H32.7256L33.8556 9.26H34.8056L36.0056 12.8H36.0256L37.0456 9.26H37.9956L36.4656 14H35.5556L34.3056 10.46H34.2856L33.1556 14H32.1856L30.6256 9.26Z" fill="#24BA9B"/>
</svg>
