<svg width="21" height="21" viewBox="0 0 21 21" fill="none" xmlns="http://www.w3.org/2000/svg">
<path d="M9.85714 0H1.71429C1.47857 0 1.28571 0.192857 1.28571 0.428571V8.57143C1.28571 8.80714 1.47857 9 1.71429 9H9.85714C10.0929 9 10.2857 8.80714 10.2857 8.57143V0.428571C10.2857 0.192857 10.0929 0 9.85714 0ZM8.46429 7.17857H3.10714V1.82143H8.46429V7.17857ZM20.5714 0H12.4286C12.1929 0 12 0.192857 12 0.428571V8.57143C12 8.80714 12.1929 9 12.4286 9H20.5714C20.8071 9 21 8.80714 21 8.57143V0.428571C21 0.192857 20.8071 0 20.5714 0ZM19.1786 7.17857H13.8214V1.82143H19.1786V7.17857ZM20.5714 10.7143H12.4286C12.1929 10.7143 12 10.9071 12 11.1429V19.2857C12 19.5214 12.1929 19.7143 12.4286 19.7143H20.5714C20.8071 19.7143 21 19.5214 21 19.2857V11.1429C21 10.9071 20.8071 10.7143 20.5714 10.7143ZM19.1786 17.8929H13.8214V12.5357H19.1786V17.8929ZM8.78571 15.2143H5.35714V11.7857C5.35714 11.6679 5.26071 11.5714 5.14286 11.5714H3.85714C3.73929 11.5714 3.64286 11.6679 3.64286 11.7857V15.2143H0.214286C0.0964286 15.2143 0 15.3107 0 15.4286V16.7143C0 16.8321 0.0964286 16.9286 0.214286 16.9286H3.64286V20.3571C3.64286 20.475 3.73929 20.5714 3.85714 20.5714H5.14286C5.26071 20.5714 5.35714 20.475 5.35714 20.3571V16.9286H8.78571C8.90357 16.9286 9 16.8321 9 16.7143V15.4286C9 15.3107 8.90357 15.2143 8.78571 15.2143Z" fill="#0B24FB"/>
</svg>
