<svg width="27" height="26" viewBox="0 0 27 26" fill="none" xmlns="http://www.w3.org/2000/svg">
<path d="M26.9991 11.2508L26.0612 1.81679C26.0136 1.32789 25.6049 0.941593 25.0915 0.893306L15.1858 0H15.1731C15.0717 0 14.9925 0.0301793 14.9323 0.0875199L0.0926703 14.2205C0.0632942 14.2484 0.0399881 14.2816 0.0240865 14.3181C0.00818489 14.3546 0 14.3937 0 14.4332C0 14.4728 0.00818489 14.5119 0.0240865 14.5484C0.0399881 14.5849 0.0632942 14.6181 0.0926703 14.646L11.6208 25.6252C11.6811 25.6826 11.7603 25.7127 11.8458 25.7127C11.9314 25.7127 12.0106 25.6826 12.0708 25.6252L26.9104 11.4923C26.9738 11.4289 27.0055 11.3414 26.9991 11.2508ZM11.8427 22.5952L3.27417 14.4347L15.94 2.37209L23.7669 3.07829L24.5085 10.5326L11.8427 22.5952ZM18.8236 5.13048C17.2867 5.13048 16.035 6.32256 16.035 7.78625C16.035 9.24995 17.2867 10.442 18.8236 10.442C20.3605 10.442 21.6121 9.24995 21.6121 7.78625C21.6121 6.32256 20.3605 5.13048 18.8236 5.13048ZM18.8236 8.75199C18.2627 8.75199 17.8096 8.32042 17.8096 7.78625C17.8096 7.25208 18.2627 6.82051 18.8236 6.82051C19.3845 6.82051 19.8376 7.25208 19.8376 7.78625C19.8376 8.32042 19.3845 8.75199 18.8236 8.75199Z" fill="#0B24FB"/>
</svg>
