<svg width="22" height="19" viewBox="0 0 22 19" fill="none" xmlns="http://www.w3.org/2000/svg">
<path d="M20.2952 13.4697H6.26968L6.97389 12.0353L18.6748 12.0141C19.0705 12.0141 19.4096 11.7315 19.4803 11.3405L21.1007 2.27046C21.1431 2.03258 21.0795 1.78763 20.924 1.60157C20.8472 1.51 20.7514 1.43624 20.6432 1.3854C20.535 1.33456 20.4171 1.30787 20.2975 1.30716L5.41236 1.2577L5.28518 0.65947C5.2051 0.277919 4.86124 0 4.47026 0H0.831403C0.610901 0 0.399431 0.0875939 0.243512 0.243512C0.087594 0.399431 0 0.610901 0 0.831403C0 1.05191 0.087594 1.26338 0.243512 1.41929C0.399431 1.57521 0.610901 1.66281 0.831403 1.66281H3.79666L4.3525 4.3054L5.7209 10.9307L3.95918 13.8065C3.86769 13.93 3.81258 14.0766 3.80009 14.2298C3.78761 14.3829 3.81824 14.5365 3.88852 14.6732C4.02983 14.9535 4.31482 15.1301 4.63042 15.1301H6.10952C5.79419 15.5489 5.62388 16.0591 5.62434 16.5833C5.62434 17.9164 6.70775 18.9998 8.04082 18.9998C9.3739 18.9998 10.4573 17.9164 10.4573 16.5833C10.4573 16.0581 10.283 15.547 9.97213 15.1301H13.7664C13.4511 15.5489 13.2808 16.0591 13.2813 16.5833C13.2813 17.9164 14.3647 18.9998 15.6977 18.9998C17.0308 18.9998 18.1142 17.9164 18.1142 16.5833C18.1142 16.0581 17.9399 15.547 17.629 15.1301H20.2975C20.7545 15.1301 21.1289 14.758 21.1289 14.2987C21.1276 14.0785 21.0391 13.8677 20.883 13.7123C20.7268 13.557 20.5155 13.4698 20.2952 13.4697ZM5.75859 2.89696L19.3201 2.94171L17.9918 10.3796L7.33896 10.3984L5.75859 2.89696ZM8.04082 17.3276C7.63101 17.3276 7.29656 16.9931 7.29656 16.5833C7.29656 16.1735 7.63101 15.8391 8.04082 15.8391C8.45064 15.8391 8.78508 16.1735 8.78508 16.5833C8.78508 16.7807 8.70667 16.97 8.56709 17.1096C8.42752 17.2492 8.23821 17.3276 8.04082 17.3276ZM15.6977 17.3276C15.2879 17.3276 14.9535 16.9931 14.9535 16.5833C14.9535 16.1735 15.2879 15.8391 15.6977 15.8391C16.1076 15.8391 16.442 16.1735 16.442 16.5833C16.442 16.7807 16.3636 16.97 16.224 17.1096C16.0844 17.2492 15.8951 17.3276 15.6977 17.3276Z" fill="#0B24FB"/>
</svg>
