<svg width="8" height="10" viewBox="0 0 8 10" fill="none" xmlns="http://www.w3.org/2000/svg">
<path d="M7.53448 4.52559C7.31749 4.03721 7.00205 3.59887 6.6079 3.23799L6.28264 2.93956C6.2716 2.92971 6.25831 2.92271 6.24393 2.91919C6.22955 2.91568 6.21453 2.91574 6.20019 2.91938C6.18584 2.92302 6.17261 2.93013 6.16165 2.94008C6.15069 2.95003 6.14234 2.96252 6.13734 2.97645L5.99204 3.39335C5.9015 3.65489 5.73496 3.92203 5.49913 4.18469C5.48348 4.20145 5.4656 4.20592 5.4533 4.20704C5.44101 4.20816 5.42201 4.20592 5.40524 4.19028C5.38959 4.17686 5.38177 4.15675 5.38289 4.13663C5.42424 3.46377 5.22305 2.70484 4.78268 1.87885C4.4183 1.19258 3.91198 0.657199 3.27936 0.283885L2.81774 0.0122815C2.75739 -0.0234851 2.68027 0.0234586 2.68362 0.0938742L2.70821 0.630374C2.72497 0.996983 2.6825 1.32112 2.58191 1.59049C2.45896 1.92021 2.28236 2.22646 2.05658 2.50142C1.89946 2.69251 1.72137 2.86534 1.52567 3.01668C1.05434 3.37901 0.671087 3.84327 0.404611 4.3747C0.13879 4.91077 0.000324315 5.50097 0 6.09932C0 6.62688 0.103947 7.13767 0.309605 7.61941C0.508185 8.08322 0.794757 8.50416 1.15348 8.85895C1.51561 9.21661 1.93587 9.49828 2.40419 9.69387C2.88928 9.8973 3.40342 10.0001 3.93434 10.0001C4.46525 10.0001 4.97939 9.8973 5.46448 9.69499C5.93165 9.50054 6.35646 9.21695 6.7152 8.86006C7.07733 8.5024 7.36123 8.08437 7.55907 7.62052C7.76441 7.14011 7.86976 6.6229 7.86867 6.10044C7.86867 5.555 7.7569 5.02521 7.53448 4.52559ZM6.18093 8.31797C5.58072 8.9126 4.78379 9.23897 3.93434 9.23897C3.08488 9.23897 2.28795 8.9126 1.68774 8.31797C1.08977 7.72447 0.760042 6.9376 0.760042 6.10044C0.760042 5.61424 0.869578 5.14815 1.0853 4.71448C1.29542 4.29087 1.60838 3.91197 1.9884 3.62025C2.23077 3.43492 2.45059 3.22185 2.64338 2.98539C2.92281 2.64449 3.14188 2.26446 3.29389 1.8565C3.35624 1.68822 3.40155 1.5141 3.42913 1.33677C3.6985 1.5849 3.92428 1.88444 4.11317 2.2354C4.48648 2.93509 4.65861 3.55765 4.62508 4.08745C4.61707 4.21222 4.63745 4.33719 4.68468 4.45296C4.73192 4.56873 4.80478 4.67228 4.8978 4.75584C4.97841 4.82865 5.07268 4.88472 5.17514 4.9208C5.2776 4.95687 5.38621 4.97222 5.49466 4.96597C5.71485 4.95479 5.91715 4.85755 6.06469 4.69325C6.21334 4.52671 6.34188 4.35682 6.44918 4.18357C6.60566 4.38364 6.73643 4.60159 6.84038 4.83631C7.01809 5.23645 7.10863 5.6623 7.10863 6.10044C7.10863 6.9376 6.7789 7.72559 6.18093 8.31797Z" fill="#FF7101"/>
</svg>
